<svg xmlns="http://www.w3.org/2000/svg" width="83" height="30" viewBox="0 0 83 30" fill="none">
<path d="M58.9506 5.2627H55.7925V27.3695H58.9506V5.2627Z" fill="white"/>
<path d="M58.9507 -0.000976562H55.7927V2.63079H58.9507V-0.000976562Z" fill="white"/>
<path d="M75.7938 27.3691H69.4777V30.0009H75.7938V27.3691Z" fill="white"/>
<path d="M75.7939 19.4736H69.4777V22.1054H75.7939V19.4736Z" fill="white"/>
<path d="M75.7937 5.2627H69.4775V7.89446H75.7937V5.2627Z" fill="white"/>
<path d="M63.6878 10.5265V16.8428H66.3195V10.5265H63.6878Z" fill="white"/>
<path d="M78.9518 7.89453H75.7938V10.5263H78.9518V7.89453Z" fill="white"/>
<path d="M82.1099 5.2627H78.9518V24.7377H82.1099V5.2627Z" fill="white"/>
<path d="M69.4777 7.89453H66.3196V10.5263H69.4777V7.89453Z" fill="white"/>
<path d="M78.9517 16.8428H75.7936V19.4745H78.9517V16.8428Z" fill="white"/>
<path d="M78.9519 24.7373H75.7938V27.3691H78.9519V24.7373Z" fill="white"/>
<path d="M69.4776 16.8428H66.3195V19.4745H69.4776V16.8428Z" fill="white"/>
<path d="M69.4777 24.7373H66.3196V27.3691H69.4777V24.7373Z" fill="white"/>
<path d="M66.3195 22.1074H63.1614V24.7392H66.3195V22.1074Z" fill="white"/>
<path d="M44.213 2.63086H41.0549V27.3694H44.213V2.63086Z" fill="white"/>
<path d="M52.1082 -0.000976562H44.213V2.63079H52.1082V-0.000976562Z" fill="white"/>
<path d="M41.055 -0.000976562H33.1599V2.63079H41.055V-0.000976562Z" fill="white"/>
<path d="M19.1563 1.31641H9.26886V5.67197H19.1563V1.31641Z" fill="white"/>
<path d="M-6.10352e-05 10.0252L-6.10352e-05 19.9785H4.32387L4.32387 10.0252H-6.10352e-05Z" fill="white"/>
<path d="M24.096 10.0252V19.9785H28.4199V10.0252H24.096Z" fill="white"/>
<path d="M24.0961 5.67188H19.1537V10.0274H24.0961V5.67188Z" fill="white"/>
<path d="M9.26643 5.67188H4.32404V10.0274H9.26643V5.67188Z" fill="white"/>
<path d="M9.26621 28.6855H19.1536V24.33H9.26621V28.6855Z" fill="white"/>
<path d="M4.32659 24.3301H9.26898V19.9745H4.32659L4.32659 24.3301Z" fill="white"/>
<path d="M19.1563 24.3301H24.0987V19.9745H19.1563V24.3301Z" fill="white"/>
<path d="M12.3557 8.77783V16.8652H16.0638V8.77783H12.3557Z" fill="white"/>
<path d="M8.03467 16.8652H16.0667V13.1334H8.03467V16.8652Z" fill="white"/>
</svg>