<svg xmlns="http://www.w3.org/2000/svg" width="312" height="114" viewBox="0 0 312 114" fill="none">
<path d="M224 20H212V104H224V20Z" fill="white"/>
<path d="M224 0H212V10H224V0Z" fill="white"/>
<path d="M288 104H264V114H288V104Z" fill="white"/>
<path d="M288 74H264V84H288V74Z" fill="white"/>
<path d="M288 20H264V30H288V20Z" fill="white"/>
<path d="M242 40V64H252V40H242Z" fill="white"/>
<path d="M300 30H288V40H300V30Z" fill="white"/>
<path d="M312 20H300V94H312V20Z" fill="white"/>
<path d="M264 30H252V40H264V30Z" fill="white"/>
<path d="M300 64H288V74H300V64Z" fill="white"/>
<path d="M300 94H288V104H300V94Z" fill="white"/>
<path d="M264 64H252V74H264V64Z" fill="white"/>
<path d="M264 94H252V104H264V94Z" fill="white"/>
<path d="M252 84H240V94H252V84Z" fill="white"/>
<path d="M168 10H156V104H168V10Z" fill="white"/>
<path d="M198 0H168V10H198V0Z" fill="white"/>
<path d="M156 0H126V10H156V0Z" fill="white"/>
<path d="M72.79 5H35.22V21.55H72.79V5Z" fill="#FF6B00"/>
<path d="M0 38.09L0 75.91H16.43L16.43 38.09H0Z" fill="#FF6B00"/>
<path d="M91.56 38.09V75.91H107.99V38.09H91.56Z" fill="#FF6B00"/>
<path d="M91.56 21.55H72.78V38.1H91.56V21.55Z" fill="#FF6B00"/>
<path d="M35.21 21.55H16.43V38.1H35.21V21.55Z" fill="#FF6B00"/>
<path d="M35.21 109H72.78V92.45H35.21V109Z" fill="#FF6B00"/>
<path d="M16.44 92.45H35.22V75.9H16.44L16.44 92.45Z" fill="#FF6B00"/>
<path d="M72.79 92.45H91.57V75.9H72.79V92.45Z" fill="#FF6B00"/>
<path d="M46.95 33.36V64.09H61.04V33.36H46.95Z" fill="#FF6B00"/>
<path d="M30.53 64.09H61.05V49.91H30.53V64.09Z" fill="#FF6B00"/>
</svg>