<svg xmlns="http://www.w3.org/2000/svg" width="42" height="42" viewBox="0 0 42 42" fill="none">
<rect x="0.5" y="0.500977" width="41" height="41" rx="20.5" stroke="#CED3D6"/>
<path d="M21.0002 15.5335C19.919 15.5335 18.8621 15.8541 17.9631 16.4548C17.0641 17.0555 16.3635 17.9093 15.9497 18.9082C15.5359 19.9071 15.4277 21.0062 15.6386 22.0667C15.8495 23.1271 16.3702 24.1012 17.1347 24.8657C17.8993 25.6302 18.8733 26.1509 19.9337 26.3618C20.9942 26.5727 22.0933 26.4645 23.0922 26.0507C24.0911 25.637 24.9449 24.9363 25.5456 24.0373C26.1463 23.1383 26.4669 22.0814 26.4669 21.0002C26.4687 20.2818 26.3285 19.5701 26.0544 18.9061C25.7803 18.2421 25.3777 17.6387 24.8697 17.1307C24.3617 16.6228 23.7584 16.2202 23.0943 15.9461C22.4303 15.672 21.7186 15.5318 21.0002 15.5335ZM21.0002 24.5602C20.2961 24.5602 19.6079 24.3514 19.0224 23.9602C18.437 23.569 17.9807 23.013 17.7112 22.3625C17.4418 21.712 17.3713 20.9962 17.5086 20.3057C17.646 19.6151 17.9851 18.9808 18.4829 18.4829C18.9808 17.985 19.6151 17.6459 20.3057 17.5086C20.9963 17.3712 21.7121 17.4417 22.3626 17.7112C23.0131 17.9806 23.5691 18.4369 23.9603 19.0224C24.3515 19.6078 24.5602 20.2961 24.5602 21.0002C24.5602 21.9444 24.1852 22.8499 23.5175 23.5175C22.8499 24.1851 21.9444 24.5602 21.0002 24.5602ZM27.9736 15.3068C27.9736 15.5706 27.8954 15.8283 27.7489 16.0476C27.6024 16.2669 27.3941 16.4378 27.1505 16.5387C26.9069 16.6396 26.6388 16.666 26.3801 16.6146C26.1215 16.5631 25.8839 16.4361 25.6974 16.2497C25.511 16.0632 25.384 15.8256 25.3325 15.567C25.2811 15.3083 25.3075 15.0402 25.4084 14.7966C25.5093 14.553 25.6802 14.3447 25.8995 14.1982C26.1187 14.0517 26.3765 13.9735 26.6402 13.9735C26.9939 13.9735 27.333 14.114 27.5831 14.364C27.8331 14.6141 27.9736 14.9532 27.9736 15.3068ZM31.5869 16.6402C31.6257 14.9826 31.0074 13.377 29.8669 12.1735C28.6699 11.0184 27.0635 10.3855 25.4002 10.4135C23.6669 10.3335 18.3336 10.3335 16.6002 10.4135C14.9432 10.3776 13.3386 10.9955 12.1336 12.1335C10.9931 13.337 10.3748 14.9426 10.4136 16.6002C10.3336 18.3335 10.3336 23.6668 10.4136 25.4002C10.3748 27.0577 10.9931 28.6634 12.1336 29.8668C13.3386 31.0048 14.9432 31.6227 16.6002 31.5868C18.3602 31.6935 23.6402 31.6935 25.4002 31.5868C27.0578 31.6256 28.6635 31.0073 29.8669 29.8668C31.0074 28.6634 31.6257 27.0577 31.5869 25.4002C31.6669 23.6668 31.6669 18.3335 31.5869 16.6002V16.6402ZM29.3202 27.3068C29.1392 27.7654 28.8659 28.1819 28.5173 28.5306C28.1687 28.8792 27.7522 29.1525 27.2936 29.3335C25.2237 29.752 23.1077 29.8955 21.0002 29.7602C18.8973 29.8957 16.7856 29.7522 14.7202 29.3335C14.2617 29.1525 13.8451 28.8792 13.4965 28.5306C13.1479 28.1819 12.8746 27.7654 12.6936 27.3068C12.1336 25.8935 12.2536 22.5602 12.2536 21.0135C12.2536 19.4668 12.1336 16.1202 12.6936 14.7202C12.8695 14.2571 13.1408 13.8361 13.49 13.4847C13.8391 13.1332 14.2583 12.8591 14.7202 12.6802C16.7856 12.2615 18.8973 12.118 21.0002 12.2535C23.1077 12.1182 25.2237 12.2617 27.2936 12.6802C27.7522 12.8612 28.1687 13.1345 28.5173 13.4831C28.8659 13.8318 29.1392 14.2483 29.3202 14.7068C29.8802 16.1202 29.7469 19.4535 29.7469 21.0002C29.7469 22.5468 29.8802 25.8935 29.3202 27.2935V27.3068Z" fill="#A9AFB3"/>
</svg>