<svg xmlns="http://www.w3.org/2000/svg" width="134" height="100" viewBox="0 0 134 100" fill="none">
<path d="M68.093 64C67.5343 64.002 66.9808 63.9178 66.4648 63.7524C65.9488 63.5869 65.4808 63.3435 65.0883 63.0365L36.7417 41.1383C36.1763 40.4993 35.9212 39.7266 36.0213 38.9565C36.1214 38.1864 36.5703 37.4684 37.2888 36.929C38.0074 36.3896 38.9494 36.0636 39.9488 36.0084C40.9481 35.9532 41.9406 36.1724 42.7512 36.6273L68.093 56.0728L93.4348 36.6273C94.234 36.227 95.1839 36.0456 96.1324 36.1121C97.0809 36.1786 97.973 36.4892 98.6658 36.9941C99.3586 37.499 99.8119 38.1689 99.953 38.8965C100.094 39.6242 99.915 40.3673 99.4443 41.0069L71.0977 62.9051C70.7198 63.236 70.2583 63.5038 69.7416 63.6921C69.225 63.8804 68.6639 63.9851 68.093 64Z" fill="#292A2B"/>
</svg>