<svg xmlns="http://www.w3.org/2000/svg" width="130" height="26" viewBox="0 0 130 26" fill="none">
<path d="M12.5241 1.47553C12.6731 1.01349 13.3269 1.01349 13.4759 1.47553L15.7916 8.65613C15.8584 8.86305 16.0512 9.00313 16.2686 9.00266L23.8134 8.98617C24.2989 8.98511 24.5009 9.60682 24.1075 9.89132L17.9939 14.3127C17.8178 14.4401 17.7441 14.6667 17.8118 14.8734L20.1589 22.0438C20.3099 22.5052 19.7811 22.8894 19.3889 22.6032L13.2948 18.1552C13.1192 18.027 12.8808 18.027 12.7052 18.1552L6.61107 22.6032C6.21894 22.8894 5.69007 22.5052 5.8411 22.0438L8.18825 14.8734C8.25589 14.6667 8.18224 14.4401 8.00607 14.3127L1.89253 9.89132C1.49915 9.60682 1.70115 8.98511 2.18663 8.98617L9.7314 9.00266C9.94882 9.00313 10.1416 8.86305 10.2084 8.65613L12.5241 1.47553Z" fill="#FF6B00"/>
<path d="M38.5241 1.47553C38.6731 1.01349 39.3269 1.01349 39.4759 1.47553L41.7916 8.65613C41.8584 8.86305 42.0512 9.00313 42.2686 9.00266L49.8134 8.98617C50.2989 8.98511 50.5009 9.60682 50.1075 9.89132L43.9939 14.3127C43.8178 14.4401 43.7441 14.6667 43.8118 14.8734L46.1589 22.0438C46.3099 22.5052 45.7811 22.8894 45.3889 22.6032L39.2948 18.1552C39.1192 18.027 38.8808 18.027 38.7052 18.1552L32.6111 22.6032C32.2189 22.8894 31.6901 22.5052 31.8411 22.0438L34.1882 14.8734C34.2559 14.6667 34.1822 14.4401 34.0061 14.3127L27.8925 9.89132C27.4991 9.60682 27.7012 8.98511 28.1866 8.98617L35.7314 9.00266C35.9488 9.00313 36.1416 8.86305 36.2084 8.65613L38.5241 1.47553Z" fill="#FF6B00"/>
<path d="M64.5241 1.47553C64.6731 1.01349 65.3269 1.01349 65.4759 1.47553L67.7916 8.65613C67.8584 8.86305 68.0512 9.00313 68.2686 9.00266L75.8134 8.98617C76.2989 8.98511 76.5009 9.60682 76.1075 9.89132L69.9939 14.3127C69.8178 14.4401 69.7441 14.6667 69.8118 14.8734L72.1589 22.0438C72.3099 22.5052 71.7811 22.8894 71.3889 22.6032L65.2948 18.1552C65.1192 18.027 64.8808 18.027 64.7052 18.1552L58.6111 22.6032C58.2189 22.8894 57.6901 22.5052 57.8411 22.0438L60.1882 14.8734C60.2559 14.6667 60.1822 14.4401 60.0061 14.3127L53.8925 9.89132C53.4991 9.60682 53.7012 8.98511 54.1866 8.98617L61.7314 9.00266C61.9488 9.00313 62.1416 8.86305 62.2084 8.65613L64.5241 1.47553Z" fill="#FF6B00"/>
<path d="M90.5241 1.47553C90.6731 1.01349 91.3269 1.01349 91.4759 1.47553L93.7916 8.65613C93.8584 8.86305 94.0512 9.00313 94.2686 9.00266L101.813 8.98617C102.299 8.98511 102.501 9.60682 102.107 9.89132L95.9939 14.3127C95.8178 14.4401 95.7441 14.6667 95.8118 14.8734L98.1589 22.0438C98.3099 22.5052 97.7811 22.8894 97.3889 22.6032L91.2948 18.1552C91.1192 18.027 90.8808 18.027 90.7052 18.1552L84.6111 22.6032C84.2189 22.8894 83.6901 22.5052 83.8411 22.0438L86.1882 14.8734C86.2559 14.6667 86.1822 14.4401 86.0061 14.3127L79.8925 9.89132C79.4991 9.60682 79.7012 8.98511 80.1866 8.98617L87.7314 9.00266C87.9488 9.00313 88.1416 8.86305 88.2084 8.65613L90.5241 1.47553Z" fill="#FF6B00"/>
<path d="M116.524 1.47553C116.673 1.01349 117.327 1.01349 117.476 1.47553L119.792 8.65613C119.858 8.86305 120.051 9.00313 120.269 9.00266L127.813 8.98617C128.299 8.98511 128.501 9.60682 128.107 9.89132L121.994 14.3127C121.818 14.4401 121.744 14.6667 121.812 14.8734L124.159 22.0438C124.31 22.5052 123.781 22.8894 123.389 22.6032L117.295 18.1552C117.119 18.027 116.881 18.027 116.705 18.1552L110.611 22.6032C110.219 22.8894 109.69 22.5052 109.841 22.0438L112.188 14.8734C112.256 14.6667 112.182 14.4401 112.006 14.3127L105.893 9.89132C105.499 9.60682 105.701 8.98511 106.187 8.98617L113.731 9.00266C113.949 9.00313 114.142 8.86305 114.208 8.65613L116.524 1.47553Z" fill="#FF6B00"/>
</svg>