<svg width="200" height="73" viewBox="0 0 200 73" fill="none" xmlns="http://www.w3.org/2000/svg">
<path d="M143.687 12.7983H136.008V66.5512H143.687V12.7983Z" fill="white"/>
<path d="M143.687 0H136.008V6.39915H143.687V0Z" fill="white"/>
<path d="M184.642 66.5512H169.284V72.9504H184.642V66.5512Z" fill="white"/>
<path d="M184.642 47.3537H169.284V53.7529H184.642V47.3537Z" fill="white"/>
<path d="M184.642 12.7983H169.284V19.1975H184.642V12.7983Z" fill="white"/>
<path d="M155.206 25.5966V40.9546H161.605V25.5966H155.206Z" fill="white"/>
<path d="M192.321 19.1974H184.642V25.5966H192.321V19.1974Z" fill="white"/>
<path d="M200 12.7983H192.321V60.1521H200V12.7983Z" fill="white"/>
<path d="M169.284 19.1974H161.605V25.5966H169.284V19.1974Z" fill="white"/>
<path d="M192.321 40.9546H184.642V47.3537H192.321V40.9546Z" fill="white"/>
<path d="M192.321 60.152H184.642V66.5511H192.321V60.152Z" fill="white"/>
<path d="M169.284 40.9546H161.605V47.3537H169.284V40.9546Z" fill="white"/>
<path d="M169.284 60.152H161.605V66.5511H169.284V60.152Z" fill="white"/>
<path d="M161.605 53.7529H153.926V60.152H161.605V53.7529Z" fill="white"/>
<path d="M107.852 6.39923H100.173V66.5513H107.852V6.39923Z" fill="white"/>
<path d="M127.05 0H107.852V6.39915H127.05V0Z" fill="white"/>
<path d="M100.173 0H80.9757V6.39915H100.173V0Z" fill="white"/>
<path d="M46.5795 3.19946H22.5378V13.7901H46.5795V3.19946Z" fill="#FF6B00"/>
<path d="M0 24.3743L0 48.5759H10.5138L10.5138 24.3743H0Z" fill="#FF6B00"/>
<path d="M58.5907 24.3743V48.5759H69.1045V24.3743H58.5907Z" fill="#FF6B00"/>
<path d="M58.5906 13.7902H46.573V24.3808H58.5906V13.7902Z" fill="#FF6B00"/>
<path d="M22.5314 13.7902H10.5138V24.3808H22.5314V13.7902Z" fill="#FF6B00"/>
<path d="M22.5314 69.7507H46.573V59.1601H22.5314V69.7507Z" fill="#FF6B00"/>
<path d="M10.5202 59.1602H22.5378V48.5696H10.5202L10.5202 59.1602Z" fill="#FF6B00"/>
<path d="M46.5794 59.1602H58.597V48.5696H46.5794V59.1602Z" fill="#FF6B00"/>
<path d="M30.0439 21.3475V41.0121H39.0604V21.3475H30.0439Z" fill="#FF6B00"/>
<path d="M19.5366 41.0121H39.0668V31.9381H19.5366V41.0121Z" fill="#FF6B00"/>
</svg>
